<svg xmlns="http://www.w3.org/2000/svg" xmlns:svg="http://www.w3.org/2000/svg" id="svg2" width="64" height="64" version="1.1" viewBox="0 0 64 64"><metadata id="metadata14"/><defs id="defs4"><path id="a" d="M 0,0 H 24 V 24 H 0 V 0 z"/></defs><g id="g2990" transform="translate(-89.559323,-14.779661)"><path id="path3811" d="m 92.993372,62.068634 a 31.923098,31.923098 0 1 1 -63.846195,0 31.923098,31.923098 0 1 1 63.846195,0 z" transform="matrix(1.002409,0,0,1.002409,60.34193,-15.438496)" style="fill:#4d4d4d;fill-opacity:1;stroke:none"/></g><path id="path10" d="m 56.518923,23.084028 c 0,2.451892 -2.006094,4.457985 -4.457986,4.457985 -0.401219,0 -0.780148,-0.04458 -1.136789,-0.156029 l -7.935215,7.912925 c 0.11145,0.35664 0.15603,0.757858 0.15603,1.159076 0,2.451892 -2.006094,4.457986 -4.457986,4.457986 -2.451892,0 -4.457986,-2.006094 -4.457986,-4.457986 0,-0.401218 0.04458,-0.802436 0.15603,-1.159076 l -5.683932,-5.683931 c -0.356639,0.11145 -0.757858,0.156029 -1.159077,0.156029 -0.401219,0 -0.802437,-0.04458 -1.159076,-0.156029 L 16.241019,39.779185 c 0.111449,0.356639 0.156029,0.735567 0.156029,1.136786 0,2.451892 -2.006094,4.457986 -4.457986,4.457986 -2.4518916,0 -4.4579854,-2.006094 -4.4579854,-4.457986 0,-2.451892 2.0060938,-4.457986 4.4579854,-4.457986 0.401219,0 0.780148,0.04458 1.136787,0.15603 L 23.240056,26.472097 c -0.11145,-0.356639 -0.15603,-0.757857 -0.15603,-1.159077 0,-2.451892 2.006094,-4.457985 4.457986,-4.457985 2.451892,0 4.457986,2.006093 4.457986,4.457985 0,0.40122 -0.04458,0.802438 -0.156029,1.159077 l 5.683932,5.683933 C 37.884539,32.044579 38.285758,32 38.686977,32 c 0.401219,0 0.802437,0.04458 1.159076,0.15603 l 7.912925,-7.935215 c -0.111449,-0.356639 -0.156029,-0.735568 -0.156029,-1.136786 0,-2.451893 2.006093,-4.457986 4.457988,-4.457986 2.451892,0 4.457986,2.006093 4.457986,4.457986 z" clip-path="none" style="fill:#fff"/></svg>